<?xml version="1.0" encoding="utf-8"?>
<!-- Generator: Adobe Illustrator 28.2.0, SVG Export Plug-In . SVG Version: 6.00 Build 0)  -->
<svg version="1.1" id="Layer_1" xmlns="http://www.w3.org/2000/svg" xmlns:xlink="http://www.w3.org/1999/xlink" x="0px" y="0px"
	 viewBox="0 0 1417.1 500" style="enable-background:new 0 0 1417.1 500;" xml:space="preserve">
<style type="text/css">
	.st0{fill:#FFFFFF;}
	.st1{fill:#80B641;}
	.st2{fill:#3D3935;}
</style>
<g>
	<g>
		<g>
			<path class="st0" d="M171.2,401.2h-42.6V151.8H59.5v-40.5H241v40.5h-69.8V401.2z"/>
		</g>
		<g>
			<path class="st0" d="M546.4,414.3l-85.8-213.5l-85.8,213.5L264.3,111.4h45.9l65.2,186l85.1-210.7l85.1,210.7l65.2-186h45.9
				L546.4,414.3z"/>
		</g>
		<g>
			<path class="st0" d="M784.5,414.3L674.2,111.4h45.9l65.2,186l85.1-210.7l85.1,210.7l65.2-186h45.9L956.2,414.3l-85.8-213.5
				L784.5,414.3z"/>
		</g>
	</g>
	<g>
		<g>
			<path class="st1" d="M1236.2,388.4h-44.3V271.7h-105.2v-41.6h105.2V116.8h44.3v113.4h105.2v41.6h-105.2V388.4z"/>
		</g>
	</g>
</g>
</svg>
